HIERARCHY
ROOT SpineBase
{
  OFFSET 0.000000 0.000000 0.000000
  CHANNELS 6 Xposition Yposition Zposition Zrotation Xrotation Yrotation
  JOINT SpineMid
  {
    OFFSET 0.000000 32.290849 0.000000
    CHANNELS 3 Zrotation Xrotation Yrotation
    JOINT SpineShoulder
    {
      OFFSET 0.109971 24.005099 -0.725900
      CHANNELS 3 Zrotation Xrotation Yrotation
      JOINT Neck
      {
        OFFSET 0.065898 7.950122 -0.587971
        CHANNELS 3 Zrotation Xrotation Yrotation
        JOINT Head
        {
          OFFSET 4.507879 12.824546 1.118355
          CHANNELS 3 Zrotation Xrotation Yrotation
          End Site
          {
            OFFSET 0 0 0
          }
        }
      }
      JOINT ShoulderLeft
      {
        OFFSET -9.816133 -1.694033 -12.552975
        CHANNELS 3 Zrotation Xrotation Yrotation
        JOINT ElbowLeft
        {
          OFFSET -2.269511 -24.403572 -6.918359
          CHANNELS 3 Zrotation Xrotation Yrotation
          JOINT WristLeft
          {
            OFFSET 7.321793 -25.811668 0.138385
            CHANNELS 3 Zrotation Xrotation Yrotation
            JOINT HandLeft
            {
              OFFSET 1.079284 -5.817655 1.604550
              CHANNELS 3 Zrotation Xrotation Yrotation
              JOINT HandTipLeft
              {
                OFFSET 0.905526 -7.442833 -0.702888
                CHANNELS 3 Zrotation Xrotation Yrotation
                End Site
                {
                  OFFSET 0 0 0
                }
              }
              JOINT ThumbLeft
              {
                OFFSET 4.811099 2.710255 1.908217
                CHANNELS 3 Zrotation Xrotation Yrotation
                End Site
                {
                  OFFSET 0 0 0
                }
              }
            }
          }
        }
      }
      JOINT ShoulderRight
      {
        OFFSET 12.891813 -4.543704 7.771435
        CHANNELS 3 Zrotation Xrotation Yrotation
        JOINT ElbowRight
        {
          OFFSET 1.370862 -31.587737 4.095099
          CHANNELS 3 Zrotation Xrotation Yrotation
          JOINT WristRight
          {
            OFFSET 4.438886 -22.356976 -7.665558
            CHANNELS 3 Zrotation Xrotation Yrotation
            JOINT HandRight
            {
              OFFSET -1.725859 -6.075737 -1.795432
              CHANNELS 3 Zrotation Xrotation Yrotation
              JOINT HandTipRight
              {
                OFFSET 1.565777 -7.593976 0.011070
                CHANNELS 3 Zrotation Xrotation Yrotation
                End Site
                {
                  OFFSET 0 0 0
                }
              }
              JOINT ThumbRight
              {
                OFFSET -2.523515 0.992918 -3.191346
                CHANNELS 3 Zrotation Xrotation Yrotation
                End Site
                {
                  OFFSET 0 0 0
                }
              }
            }
          }
        }
      }
    }
  }
  JOINT HipLeft
  {
    OFFSET -5.125309 1.612240 -7.892879
    CHANNELS 3 Zrotation Xrotation Yrotation
    JOINT KneeLeft
    {
      OFFSET -11.196109 -33.835439 -1.562428
      CHANNELS 3 Zrotation Xrotation Yrotation
      JOINT AnkleLeft
      {
        OFFSET -10.918143 -31.906397 3.277845
        CHANNELS 3 Zrotation Xrotation Yrotation
        JOINT FootLeft
        {
          OFFSET 1.025121 -8.156429 -5.213642
          CHANNELS 3 Zrotation Xrotation Yrotation
          End Site
          {
            OFFSET 0 0 0
          }
        }
      }
    }
  }
  JOINT HipRight
  {
    OFFSET 5.288320 0.672776 0.870613
    CHANNELS 3 Zrotation Xrotation Yrotation
    JOINT KneeRight
    {
      OFFSET 1.495929 -33.983903 -1.745359
      CHANNELS 3 Zrotation Xrotation Yrotation
      JOINT AnkleRight
      {
        OFFSET -13.956813 -31.897742 12.466997
        CHANNELS 3 Zrotation Xrotation Yrotation
        JOINT FootRight
        {
          OFFSET 5.214195 -7.047399 -3.460285
          CHANNELS 3 Zrotation Xrotation Yrotation
          End Site
          {
            OFFSET 0 0 0
          }
        }
      }
    }
  }
}
MOTION
Frames: 13
Frame Time: 0.033333
-6.065251 73.923275 340.789734 -0.000000 0.000000 -40.081975 0.000000 0.000000 40.081975 -0.000000 0.000000 0.000000 -0.000000 0.000000 0.000000 0.000000 0.000000 0.000000 -0.000000 0.000000 0.000000 -0.000000 0.000000 0.000000 -0.000000 0.000000 0.000000 -0.000000 0.000000 0.000000 0.000000 0.000000 0.000000 0.000000 0.000000 0.000000 -0.000000 0.000000 0.000000 -0.000000 0.000000 0.000000 -0.000000 0.000000 0.000000 -0.000000 0.000000 0.000000 0.000000 0.000000 0.000000 0.000000 0.000000 0.000000 0.000000 0.000000 40.081975 -0.000000 0.000000 0.000000 -0.000000 0.000000 0.000000 0.000000 0.000000 0.000000 0.000000 0.000000 40.081975 -0.000000 0.000000 0.000000 -0.000000 0.000000 0.000000 0.000000 0.000000 0.000000
-6.084320 73.935030 340.837139 -0.059225 -0.011019 -39.717682 0.038514 0.046321 39.717660 -0.000000 0.000000 0.000000 -0.000000 0.000000 0.000000 0.000000 0.000000 0.000000 -0.000000 0.000000 0.000000 0.503367 0.949528 0.267557 1.172894 -0.955907 0.214064 3.040028 -0.570140 -0.949728 0.000000 0.000000 0.000000 0.000000 0.000000 0.000000 -0.000000 0.000000 0.000000 -0.397904 -1.149559 -0.096207 2.183217 4.402992 -1.444922 -1.691782 -2.074565 1.649654 0.000000 0.000000 0.000000 0.000000 0.000000 0.000000 0.038514 0.046321 39.717660 -0.000000 0.000000 0.000000 -0.000000 0.000000 0.000000 0.000000 0.000000 0.000000 0.038514 0.046321 39.717660 -0.000000 0.000000 0.000000 -0.000000 0.000000 0.000000 0.000000 0.000000 0.000000
-6.099870 73.933610 340.884332 -0.105508 -0.028051 -39.361359 0.063785 0.088603 39.361284 -0.000000 0.000000 0.000000 0.836003 -0.620920 0.150340 0.000000 0.000000 0.000000 -0.000000 0.000000 0.000000 0.980383 1.813615 0.503054 1.995859 -1.746160 0.395159 5.570340 -1.247125 -1.677649 0.000000 0.000000 0.000000 0.000000 0.000000 0.000000 -0.000000 0.000000 0.000000 -0.730940 -2.112413 -0.183707 4.030918 7.964171 -2.753456 -3.032519 -3.781028 2.915825 0.000000 0.000000 0.000000 0.000000 0.000000 0.000000 0.063785 0.088603 39.361284 -0.000000 0.000000 0.000000 -0.000000 0.000000 0.000000 0.000000 0.000000 0.000000 -1.126781 0.312051 39.446278 1.969068 -1.278387 0.568633 -1.187898 0.361001 -0.616468 0.000000 0.000000 0.000000
-6.111901 73.919015 340.931314 -0.138759 -0.051105 -39.013660 0.075644 0.127058 39.013515 -0.000000 0.000000 0.000000 1.201019 -0.882443 0.215639 0.000000 0.000000 0.000000 -0.000000 0.000000 0.000000 1.417531 2.559192 0.699622 2.543411 -2.344060 0.545529 7.465146 -1.968413 -2.199098 0.000000 0.000000 0.000000 0.000000 0.000000 0.000000 -0.000000 0.000000 0.000000 -0.997573 -2.886536 -0.259003 5.522295 10.720584 -3.858484 -4.038279 -5.154484 3.846440 0.000000 0.000000 0.000000 0.000000 0.000000 0.000000 0.075644 0.127058 39.013515 -0.000000 0.000000 0.000000 -0.000000 0.000000 0.000000 0.000000 0.000000 0.000000 -1.737833 0.392364 39.144844 2.925066 -1.945219 0.862228 -2.240840 1.012582 -0.339489 0.000000 0.000000 0.000000
-6.120414 73.891244 340.978084 -0.158905 -0.080178 -38.675249 0.073954 0.161896 38.675033 -0.000000 0.000000 0.000000 1.531217 -1.112064 0.273749 0.000000 0.000000 0.000000 -0.000000 0.000000 0.000000 1.801498 3.155243 0.851600 2.872831 -2.721492 0.668316 8.662748 -2.692928 -2.539686 0.000000 0.000000 0.000000 0.000000 0.000000 0.000000 -0.336591 0.935961 -0.000267 -0.860934 -4.406627 -0.333084 6.638788 12.715746 -4.709629 -4.723995 -6.236999 4.481405 0.000000 0.000000 0.000000 0.000000 0.000000 0.000000 0.073954 0.161896 38.675033 -0.000000 0.000000 0.000000 -0.000000 0.000000 0.000000 0.000000 0.000000 0.000000 -2.375278 0.421388 38.853672 3.865148 -2.628570 1.163930 -2.936487 1.398385 -0.438734 0.000000 0.000000 0.000000
-6.125408 73.850298 341.024643 -0.165900 -0.115259 -38.346784 0.058602 0.193322 38.346518 -0.000000 0.000000 0.000000 1.826960 -1.310284 0.324291 0.000000 0.000000 0.000000 -0.000000 0.000000 0.000000 2.120198 3.575772 0.954945 3.026578 -2.852463 0.767099 9.138122 -3.398626 -2.728329 0.000000 0.000000 0.000000 0.000000 0.000000 0.000000 -0.381533 1.092436 0.001588 -0.947034 -4.956783 -0.382036 7.365574 13.988204 -5.271021 -5.102482 -7.065600 4.849962 0.000000 0.000000 0.000000 0.000000 0.000000 0.000000 0.058602 0.193322 38.346518 -0.000000 0.000000 0.000000 -0.000000 0.000000 0.000000 0.000000 0.000000 0.000000 -3.034656 0.399481 38.572179 4.789218 -3.328886 1.475136 -3.613800 1.813147 -0.533103 0.000000 0.000000 0.000000
-6.156028 73.791938 341.055008 -0.188045 -0.130779 -37.859030 0.068204 0.218660 37.858686 -0.000000 0.000000 0.000000 2.111732 -1.534129 0.386340 0.000000 0.000000 0.000000 -0.000000 0.000000 0.000000 2.073342 3.443711 0.921327 3.584084 -0.620365 1.248199 6.032608 -5.674097 -2.797214 0.000000 0.000000 0.000000 0.000000 0.000000 0.000000 -0.364946 1.142527 0.005920 -1.301090 -5.427223 -0.380517 8.307749 16.592714 -6.348731 -6.013628 -10.857566 5.043230 0.000000 0.000000 0.000000 0.000000 0.000000 0.000000 0.068204 0.218660 37.858686 -0.000000 0.000000 0.000000 -0.000000 0.000000 0.000000 0.000000 0.000000 0.000000 -4.569082 0.051797 38.182654 7.022222 -5.115629 2.327982 -4.565285 3.154671 -1.045701 0.000000 0.000000 0.000000
-6.223960 73.744904 341.070605 -0.234061 -0.132343 -37.387873 0.105613 0.247276 37.387375 -0.000000 0.000000 0.000000 2.299504 -1.699214 0.434501 0.000000 0.000000 0.000000 -0.587326 -0.686757 0.227133 2.616222 4.220023 0.690976 4.164019 0.007931 1.489114 4.745890 -7.169988 -3.000006 0.000000 0.000000 0.000000 0.000000 0.000000 0.000000 -0.347604 1.228136 0.011981 -1.437624 -5.485208 -0.348865 8.359751 15.672211 -6.073257 -5.057992 -9.822092 5.033831 0.000000 0.000000 0.000000 0.000000 0.000000 0.000000 0.105613 0.247276 37.387375 -0.000000 0.000000 0.000000 0.797232 0.087828 -0.498493 0.000000 0.000000 0.000000 -5.251229 -0.059792 37.757151 7.995492 -6.132585 2.796003 -5.246462 3.973451 -1.147268 0.000000 0.000000 0.000000
-6.186901 73.676482 341.109276 -0.149906 -0.182375 -37.011416 0.009917 0.235869 37.011157 -0.000000 0.000000 0.000000 2.439078 -1.839375 0.477270 0.000000 0.000000 0.000000 -1.358110 -0.439745 0.420715 4.079929 4.146222 0.528932 2.683975 -0.809405 1.091948 5.290637 -6.332025 -2.717964 0.000000 0.000000 0.000000 0.000000 0.000000 0.000000 -0.332561 1.339785 0.018953 -1.812868 -6.127962 -0.374531 10.868490 12.300432 -5.879595 -4.324431 -8.941039 4.481418 0.000000 0.000000 0.000000 0.000000 0.000000 0.000000 0.009917 0.235869 37.011157 -0.000000 0.000000 0.000000 0.883652 0.020313 -0.561838 0.000000 0.000000 0.000000 -5.507664 0.111534 37.400248 7.750244 -6.833226 2.892930 -4.592141 5.426631 -0.657323 0.000000 0.000000 0.000000
-6.033617 73.539822 341.197290 0.054995 -0.267848 -37.102548 -0.205440 0.180448 37.103000 -0.000000 0.000000 0.000000 2.662463 -2.253450 0.618459 0.000000 0.000000 0.000000 -1.747138 -0.414357 0.527354 4.342937 5.261986 0.725447 -1.775479 -7.124600 -1.574847 11.710541 2.687780 -1.500046 0.000000 0.000000 0.000000 0.000000 0.000000 0.000000 -0.415625 1.466484 0.015111 -3.009697 -4.222955 0.458090 13.205078 7.035918 -5.732690 -7.067417 -4.474799 4.067010 0.000000 0.000000 0.000000 0.000000 0.000000 0.000000 -0.205440 0.180448 37.103000 -0.000000 0.000000 0.000000 0.950940 -0.121667 -0.621910 0.000000 0.000000 0.000000 -5.904664 0.157772 37.504929 7.550056 -7.379706 2.922967 -6.114946 4.853742 -0.388141 0.000000 0.000000 0.000000
-5.848827 73.398866 341.380395 0.249180 -0.505510 -40.096636 -0.516204 0.226196 40.098754 -0.000000 0.000000 0.000000 3.022553 -2.066504 0.523018 0.000000 0.000000 0.000000 -1.412674 -0.424046 0.434674 3.840577 5.059309 0.768928 -2.837930 -11.323525 -2.752696 14.412181 6.627508 -1.769222 0.000000 0.000000 0.000000 0.000000 0.000000 0.000000 -0.000000 0.000000 0.000000 -1.095087 0.361666 0.451114 8.875854 0.668138 -3.121442 -11.113157 5.632469 4.180335 0.000000 0.000000 0.000000 0.000000 0.000000 0.000000 -0.516204 0.226196 40.098754 -0.000000 0.000000 0.000000 0.446471 -1.507491 -0.472732 0.000000 0.000000 0.000000 -6.217622 0.503351 40.521135 7.368187 -6.554309 2.461246 -9.303638 1.573473 -0.041257 0.000000 0.000000 0.000000
-5.608302 73.382430 341.655668 0.487885 -0.906383 -40.732095 -0.211845 -0.035735 40.749702 0.047203 -0.235255 0.022058 3.125628 -0.264407 0.098174 0.000000 0.000000 0.000000 1.297348 -0.244432 -0.393229 1.004615 2.251358 0.575461 -3.775052 -11.033060 -2.539508 13.080024 8.664267 -1.324087 0.000000 0.000000 0.000000 0.000000 0.000000 0.000000 -1.974676 0.491661 -0.243699 4.338751 2.146549 -0.449433 -4.519255 2.937886 -0.170916 -7.091218 11.080856 4.669209 0.000000 0.000000 0.000000 0.000000 0.000000 0.000000 -2.952599 -0.046016 40.501947 1.783623 -0.978041 0.257926 -0.000000 0.000000 0.000000 0.000000 0.000000 0.000000 -6.159195 -0.559097 41.082580 8.405324 -3.842046 2.001888 -9.973098 -1.334961 -1.036344 0.000000 0.000000 0.000000
-5.471678 73.216805 342.019332 0.571098 -1.373864 -39.889119 -0.210242 -0.160675 39.914292 -0.045086 -0.382463 0.019675 3.207974 1.538349 -0.363281 0.000000 0.000000 0.000000 7.417452 -1.864351 -1.896139 -4.008898 0.635122 1.193152 -3.802949 -15.830370 -2.565703 8.696033 16.171223 -0.460959 0.000000 0.000000 0.000000 0.000000 0.000000 0.000000 -3.656067 6.206156 -0.040479 9.332301 -6.056508 -1.417217 -9.987406 -2.475140 4.677296 -2.521460 18.802364 2.057763 0.000000 0.000000 0.000000 0.000000 0.000000 0.000000 -4.772161 0.315714 39.433099 4.256550 -1.526949 0.604577 -0.070434 1.124283 -0.655369 0.000000 0.000000 0.000000 -5.374377 -2.062371 40.127762 9.680593 0.435766 1.239186 -11.902084 -5.558145 -2.176972 0.000000 0.000000 0.000000
